<svg width="297" height="395" viewBox="0 0 297 395" fill="none" xmlns="http://www.w3.org/2000/svg">
    <g clip-path="url(#clip0_5_767)">
        <path d="M34.9012 5.11079C23.1472 16.196 -14.6917 86.8991 9.08372 196.377L47.4374 170.344C13.3135 84.9782 51.2616 38.1845 51.2616 38.1845C63.9104 43.3623 59.9679 28.489 59.8702 28.1871L59.8925 27.608C63.3541 25.4146 66.273 22.4654 68.4299 18.9822C74.2598 9.23631 46.656 -5.97775 34.9012 5.11079V5.11079Z" fill="#FCFEFE"/>
        <path d="M47.3082 170.77C47.146 170.77 46.9872 170.722 46.8518 170.633C46.7164 170.543 46.6103 170.416 46.5467 170.267C28.506 128.096 30.5166 94.2112 35.3812 73.2122C40.6606 50.4196 50.3759 37.4127 50.4736 37.2844C50.5837 37.139 50.7389 37.034 50.915 36.9858C51.091 36.9376 51.2781 36.949 51.447 37.0181C54.628 38.3202 56.8853 38.3946 58.16 37.2422C60.443 35.1791 59.3454 29.3601 58.9514 28.0307C58.8927 27.8236 58.9171 27.6018 59.0194 27.4124C59.1217 27.223 59.2939 27.0809 59.4994 27.0163C59.7048 26.9517 59.9274 26.9697 60.1198 27.0664C60.3122 27.1631 60.4593 27.331 60.5299 27.5344C60.5547 27.6097 62.7375 35.2651 59.3089 38.4351C57.6187 39.997 54.9691 40.1161 51.4313 38.79C49.6334 41.3628 41.5869 53.6889 36.973 73.6729C32.1845 94.4164 30.2227 127.9 48.0698 169.616C48.1238 169.742 48.1456 169.88 48.1334 170.016C48.1212 170.152 48.0753 170.284 47.9998 170.398C47.9244 170.512 47.8216 170.606 47.7009 170.671C47.5802 170.736 47.4453 170.77 47.3082 170.77V170.77Z" fill="#493F3F"/>
        <path d="M8.65953 197.218C8.47103 197.217 8.28829 197.153 8.14154 197.035C7.99479 196.916 7.89281 196.752 7.85247 196.568C-5.13241 137.655 0.454892 91.5814 7.42453 63.3041C15.4214 30.8632 27.8211 10.1289 34.2038 4.1073C37.7863 0.727959 43.1808 -0.63205 49.3947 0.278759C54.8526 1.11898 60.0056 3.33799 64.3653 6.72557C69.4386 10.7965 71.1752 15.3861 69.0106 19.0045C63.7553 27.79 53.6551 31.8981 50.796 31.2827C50.48 31.2469 50.1851 31.1061 49.9586 30.8829C49.7322 30.6597 49.5872 30.367 49.547 30.0517C49.2879 27.7809 56.4603 19.7193 59.5561 16.3581C59.6295 16.2775 59.7182 16.2122 59.817 16.1659C59.9158 16.1197 60.0228 16.0934 60.1318 16.0886C60.2408 16.0838 60.3497 16.1006 60.4522 16.138C60.5546 16.1755 60.6487 16.2327 60.729 16.3066C60.8092 16.3805 60.874 16.4695 60.9197 16.5685C60.9655 16.6675 60.9911 16.7746 60.9953 16.8835C60.9995 16.9925 60.982 17.1012 60.944 17.2034C60.906 17.3056 60.8481 17.3993 60.7737 17.4791C56.3693 22.2647 51.6213 28.1151 51.2198 29.691C52.9581 30.0318 62.502 26.6616 67.5902 18.1558C69.2904 15.3125 67.6978 11.522 63.329 8.01526C52.4482 -0.714776 40.0833 0.834675 35.3445 5.31013C29.3383 10.9727 16.8857 31.8328 9.03201 63.6987C2.10376 91.8039 -3.4438 137.609 9.46906 196.214C9.49571 196.334 9.49484 196.46 9.46653 196.58C9.43821 196.701 9.38318 196.814 9.30548 196.91C9.22778 197.007 9.12941 197.084 9.01761 197.138C8.90581 197.191 8.78344 197.219 8.65953 197.219V197.218Z" fill="#493F3F"/>
        <path d="M36.2363 22.5014C36.033 22.504 35.8304 22.4762 35.6354 22.4186C35.3624 22.3398 35.1134 22.1941 34.9111 21.9947C34.7087 21.7954 34.5593 21.5487 34.4765 21.277C33.5792 18.4594 39.3453 10.7179 41.1341 8.41237C41.2004 8.32496 41.2833 8.2516 41.3782 8.19654C41.4731 8.14148 41.578 8.10583 41.6868 8.09165C41.7956 8.07748 41.9062 8.08506 42.012 8.11397C42.1179 8.14287 42.2169 8.19252 42.3034 8.26002C42.3898 8.32752 42.462 8.41153 42.5157 8.50717C42.5694 8.6028 42.6035 8.70815 42.6161 8.81708C42.6287 8.92602 42.6195 9.03637 42.589 9.14171C42.5586 9.24706 42.5074 9.3453 42.4386 9.43072C38.0665 15.0676 35.469 20.0924 36.065 20.8196C37.7842 21.3416 43.6902 15.8908 48.2279 10.555C48.2985 10.4722 48.3848 10.4042 48.4818 10.3548C48.5787 10.3054 48.6845 10.2756 48.793 10.267C48.9015 10.2584 49.0106 10.2713 49.1141 10.3049C49.2176 10.3385 49.3135 10.3921 49.3963 10.4627C49.479 10.5333 49.5471 10.6196 49.5965 10.7164C49.646 10.8133 49.6758 10.919 49.6844 11.0275C49.693 11.1359 49.6801 11.2449 49.6465 11.3484C49.6129 11.4518 49.5592 11.5477 49.4885 11.6304C47.242 14.2693 39.9397 22.5014 36.2363 22.5014Z" fill="#493F3F"/>
        <path d="M46.584 30.7168C46.4587 30.7168 46.3336 30.7046 46.2107 30.6804C45.7981 30.5529 45.4247 30.3226 45.1257 30.0112C44.8267 29.6998 44.6118 29.3175 44.5014 28.9002C43.6893 26.8321 49.3429 18.7837 52.7855 14.1692C52.9172 13.9937 53.1133 13.8777 53.3306 13.8467C53.5479 13.8156 53.7687 13.8721 53.9443 14.0038C54.1199 14.1354 54.236 14.3314 54.2671 14.5486C54.2981 14.7658 54.2416 14.9864 54.1099 15.1619C50.0986 20.5391 45.8762 27.1075 46.0517 28.3401C46.2628 28.8688 46.4515 29.0458 46.5277 29.0607C47.3107 29.2021 49.9446 26.4631 53.2813 22.9729C54.6785 21.5128 56.31 19.8053 58.2279 17.8555C58.3028 17.7729 58.3935 17.7062 58.4948 17.6595C58.5961 17.6129 58.7057 17.5871 58.8172 17.5838C58.9286 17.5806 59.0396 17.5998 59.1435 17.6405C59.2473 17.6811 59.3418 17.7423 59.4214 17.8204C59.501 17.8985 59.5639 17.9918 59.6065 18.0948C59.6491 18.1978 59.6704 18.3084 59.6692 18.4198C59.668 18.5313 59.6442 18.6413 59.5994 18.7434C59.5546 18.8454 59.4895 18.9373 59.4083 19.0137C57.4978 20.9569 55.8705 22.6594 54.479 24.1145C50.0357 28.762 48.1666 30.716 46.584 30.7168V30.7168Z" fill="#493F3F"/>
        <path d="M42.0819 26.3795C41.8509 26.3888 41.6205 26.3493 41.4058 26.2638C41.191 26.1783 40.9966 26.0486 40.8353 25.8832C38.8718 23.863 44.2464 15.7443 47.6228 11.0852C47.7516 10.9075 47.9457 10.7882 48.1625 10.7535C48.3792 10.7188 48.6009 10.7717 48.7787 10.9003C48.9566 11.029 49.076 11.223 49.1107 11.4397C49.1453 11.6563 49.0925 11.8779 48.9638 12.0556C44.7182 17.9192 41.548 23.734 42.0413 24.7598C42.0289 24.7217 42.9245 24.9856 46.9738 22.2275C47.0637 22.1663 47.1648 22.1234 47.2713 22.1012C47.3778 22.0791 47.4876 22.0781 47.5945 22.0983C47.7014 22.1185 47.8032 22.1596 47.8942 22.2192C47.9852 22.2788 48.0636 22.3557 48.1248 22.4455C48.1861 22.5354 48.229 22.6364 48.2512 22.7428C48.2734 22.8492 48.2744 22.959 48.2541 23.0658C48.2339 23.1726 48.1928 23.2744 48.1332 23.3654C48.0736 23.4563 47.9966 23.5346 47.9067 23.5958C45.1313 25.4853 43.2912 26.3795 42.0819 26.3795V26.3795Z" fill="#493F3F"/>
        <path d="M35.9822 34.8382C35.7063 34.8382 35.4221 34.8267 35.1296 34.8035L35.0121 34.7952C34.9047 34.8031 34.7969 34.7891 34.6951 34.7542C34.5933 34.7192 34.4997 34.664 34.4198 34.5919C34.34 34.5197 34.2756 34.4322 34.2306 34.3344C34.1855 34.2367 34.1608 34.1309 34.1578 34.0234C34.1492 33.8014 34.2279 33.5849 34.377 33.4202C34.5262 33.2556 34.7339 33.1558 34.9558 33.1424C35.0572 33.1409 35.1586 33.1447 35.2596 33.1539C35.8713 33.2019 37.7312 33.35 38.919 32.2804C39.2967 31.8911 39.5899 31.4281 39.78 30.9203C39.9702 30.4125 40.0533 29.8709 40.0241 29.3295C40.0329 29.1114 40.1263 28.9053 40.2845 28.7547C40.4427 28.6042 40.6533 28.5211 40.8717 28.523C40.9805 28.5255 41.0877 28.5495 41.1872 28.5935C41.2867 28.6376 41.3765 28.7008 41.4516 28.7795C41.5266 28.8583 41.5854 28.951 41.6245 29.0525C41.6636 29.154 41.6823 29.2622 41.6796 29.3709C41.7071 30.1376 41.574 30.9015 41.2889 31.6138C41.0039 32.3261 40.573 32.971 40.0241 33.5072C38.8922 34.4431 37.449 34.9183 35.9822 34.8382V34.8382Z" fill="#493F3F"/>
        <path d="M38.8015 12.9763C38.345 13.0073 37.8874 12.9368 37.4614 12.7699C37.0355 12.603 36.6518 12.3438 36.3381 12.0109C36.0592 11.6549 35.858 11.2445 35.7472 10.8062C35.6364 10.3678 35.6186 9.91112 35.695 9.46546C35.7335 9.24935 35.8563 9.05739 36.0365 8.9318C36.2166 8.80622 36.4393 8.75729 36.6556 8.7958C36.8718 8.8343 37.0639 8.95708 37.1895 9.13712C37.3152 9.31716 37.3642 9.53972 37.3256 9.75583C37.2573 10.1674 37.353 10.5894 37.5922 10.9314C37.7779 11.0903 37.9958 11.2073 38.2309 11.2743C38.4661 11.3412 38.713 11.3566 38.9546 11.3193C39.0635 11.3137 39.1725 11.3298 39.275 11.3669C39.3776 11.4039 39.4717 11.461 39.5519 11.535C39.632 11.6089 39.6965 11.6981 39.7417 11.7973C39.7868 11.8965 39.8116 12.0037 39.8147 12.1127C39.8234 12.3319 39.7447 12.5455 39.5958 12.7067C39.447 12.8679 39.2402 12.9634 39.0209 12.9722C38.9488 12.9755 38.8743 12.9763 38.8015 12.9763V12.9763Z" fill="#493F3F"/>
        <path d="M263.313 466.39L233.085 435.753C232.018 434.67 230.569 434.051 229.049 434.027C227.53 434.003 226.061 434.578 224.962 435.626C218.395 441.892 204.659 454.721 189.082 467.651C178.959 476.053 162.487 489.033 155.634 493.852C162.147 481.36 211.719 417.549 195.137 374.631L173.744 376.51L136.175 389.803L117.35 393.013L98.3629 394.56L70.8908 392.584C59.5705 405.87 47.1535 425.86 35.3274 449.964C13.6578 494.135 9.60186 561.23 39.938 645.786C40.2269 646.504 40.6594 647.156 41.209 647.701C41.7585 648.246 42.4136 648.674 43.1341 648.958C43.8547 649.241 44.6255 649.375 45.3996 649.351C46.1737 649.327 46.9346 649.145 47.636 648.817L86.9657 631.301C88.3453 630.684 89.429 629.552 89.9857 628.148C90.5424 626.743 90.528 625.177 89.9455 623.783C73.7523 584.782 62.8558 538.841 71.7318 502.09C78.5715 473.77 122.772 439.153 123.036 438.923L123.52 438.293L112.128 459.613C102.757 477.579 98.9945 497.443 99.6285 517.297C100.421 542.093 116.023 551.788 122.931 554.321C129.662 556.749 136.894 557.453 143.967 556.371C162.667 553.797 185.738 540.58 217.609 514.873C237.582 498.764 255.354 482.139 263.199 474.634C263.753 474.103 264.196 473.467 264.502 472.764C264.807 472.06 264.97 471.303 264.981 470.536C264.992 469.769 264.85 469.007 264.563 468.295C264.277 467.584 263.852 466.936 263.313 466.39V466.39Z" fill="#FCFEFE"/>
        <path d="M41.918 647.301C41.4122 646.918 12.965 598.197 16.4606 521.387C16.4606 521.387 11.3617 465.802 71.4926 389.726L76.6536 391.574C76.6536 391.574 29.4778 447.19 22.701 504.835C15.954 562.227 37.5748 625.571 49.3338 647.405C49.3338 647.405 44.0619 648.924 41.918 647.301V647.301Z" fill="#FCFEFE"/>
        <path d="M136.948 556.909C131.958 556.927 127.004 556.055 122.32 554.334C117.309 552.558 112.748 549.706 108.958 545.979C90.0772 527.108 101.878 476.083 111.067 458.464L126.335 429.891C126.386 429.795 126.456 429.71 126.54 429.641C126.624 429.573 126.721 429.521 126.825 429.489C126.929 429.458 127.038 429.447 127.146 429.458C127.254 429.468 127.359 429.5 127.455 429.551C127.551 429.603 127.636 429.672 127.705 429.756C127.774 429.84 127.826 429.937 127.857 430.041C127.889 430.145 127.9 430.254 127.889 430.362C127.878 430.47 127.846 430.575 127.795 430.671L112.531 459.236C103.514 476.526 91.8138 526.505 110.13 544.809C113.751 548.365 118.107 551.084 122.892 552.777C129.494 555.162 136.591 555.853 143.53 554.785C161.878 552.26 184.464 539.516 216.765 513.463C236.357 497.662 253.705 481.499 262.303 473.27C262.778 472.815 263.158 472.27 263.42 471.667C263.683 471.064 263.822 470.415 263.831 469.757C263.84 469.1 263.719 468.447 263.473 467.837C263.227 467.227 262.862 466.672 262.399 466.204L232.172 435.568C231.255 434.646 230.014 434.118 228.713 434.098C227.412 434.077 226.155 434.565 225.209 435.458C218.451 441.906 204.796 454.65 189.285 467.521C185.95 470.29 181.888 473.764 177.586 477.441C168.783 484.969 159.678 492.753 155.054 496.004C154.901 496.111 154.716 496.163 154.529 496.152C154.342 496.141 154.165 496.067 154.026 495.943C153.886 495.818 153.794 495.65 153.762 495.466C153.731 495.281 153.763 495.092 153.853 494.928C155.213 492.468 157.439 488.994 160.259 484.595C175.737 460.439 207.953 410.177 194.04 374.164C193.998 374.062 193.977 373.953 193.977 373.843C193.978 373.732 194.001 373.623 194.044 373.522C194.088 373.421 194.151 373.329 194.231 373.253C194.31 373.177 194.404 373.117 194.507 373.077C194.609 373.037 194.719 373.018 194.829 373.022C194.94 373.025 195.048 373.05 195.148 373.096C195.249 373.141 195.339 373.207 195.414 373.288C195.488 373.369 195.546 373.464 195.584 373.567C209.798 410.363 177.28 461.103 161.653 485.488C160.023 488.03 158.59 490.262 157.419 492.159C162.355 488.287 169.527 482.155 176.51 476.184C180.814 472.503 184.883 469.026 188.228 466.25C203.699 453.407 217.322 440.696 224.066 434.262C225.326 433.072 227.002 432.42 228.736 432.447C230.47 432.474 232.125 433.177 233.348 434.406L263.576 465.044C264.193 465.667 264.68 466.408 265.007 467.221C265.335 468.035 265.498 468.905 265.485 469.782C265.473 470.659 265.287 471.525 264.936 472.329C264.586 473.133 264.079 473.86 263.446 474.466C254.83 482.712 237.443 498.911 217.803 514.753C185.254 541.006 162.417 553.859 143.754 556.427C141.499 556.743 139.225 556.904 136.948 556.909V556.909Z" fill="#9AE6EB"/>
        <path d="M44.9525 649.388C44.116 649.387 43.2872 649.227 42.5098 648.919C41.6906 648.599 40.9443 648.117 40.3153 647.503C39.6863 646.888 39.1875 646.154 38.8487 645.342C14.9624 588.598 14.5187 532.523 16.3795 504.148C17.2072 491.51 27.6368 462.338 34.2588 448.837C45.969 424.969 58.362 400.54 69.8338 387.076C69.9765 386.908 70.1798 386.805 70.399 386.787C70.6181 386.77 70.8353 386.84 71.0025 386.983C71.1698 387.126 71.2736 387.329 71.291 387.548C71.3083 387.767 71.238 387.984 71.0953 388.151C59.7468 401.47 47.4092 425.791 35.7446 449.568C29.3312 462.639 18.8362 492.015 18.0308 504.259C16.5409 526.985 15.733 586.166 40.3742 644.704C40.6317 645.312 41.0079 645.862 41.4807 646.323C41.9536 646.783 42.5136 647.145 43.1281 647.387C43.7425 647.629 44.399 647.746 45.0592 647.731C45.7194 647.716 46.3701 647.57 46.973 647.301L86.3043 629.784C87.4915 629.26 88.4249 628.291 88.9028 627.085C89.3808 625.879 89.3649 624.533 88.8587 623.339C70.6367 579.466 65.0196 544.814 70.0688 507.473C74.1248 477.457 117.204 441.584 122.103 437.593L122.179 437.53C122.346 437.394 122.561 437.329 122.775 437.348C122.99 437.368 123.189 437.47 123.33 437.634C123.47 437.798 123.541 438.01 123.527 438.225C123.513 438.441 123.415 438.642 123.255 438.787L123.147 438.875C118.3 442.824 75.6818 478.307 71.7078 507.694C66.7007 544.726 72.2872 579.121 90.3892 622.705C91.0632 624.298 91.0834 626.091 90.4455 627.699C89.8076 629.306 88.5627 630.598 86.9797 631.296L47.6485 648.809C46.8005 649.19 45.8819 649.387 44.9525 649.388V649.388Z" fill="#9AE6EB"/>
        <path d="M200.254 356.307L193.426 332.301C187.576 310.96 180.616 289.939 172.575 269.322L173.146 270.277L177.363 272.628C177.363 272.628 200.092 249.087 200.232 220.712C200.296 208.191 180.561 201.032 169.054 194.94C160.989 190.67 137.568 180.085 120.609 182.419L74.1662 189.376C71.8689 190.281 69.4047 190.685 66.9385 190.561C64.4723 190.437 62.0612 189.787 59.8666 188.656C57.672 187.525 55.7446 185.938 54.2136 184.002C52.6826 182.065 51.5833 179.824 50.9893 177.429C50.2622 174.291 49.7954 171.099 49.5937 167.885L6.2164 199.103C6.2164 199.103 7.90748 247.68 62.8559 256.553C49.5349 340.767 48.0615 409.05 48.0615 409.05C48.0615 409.05 103.086 424.474 148.726 404.245C162.395 398.187 181.858 393.111 208.389 395.217C208.389 395.217 205.406 377.466 200.254 356.307V356.307Z" fill="#FCFEFE"/>
        <path d="M78.1609 231.858C73.4378 231.858 70.1318 230.806 68.2652 228.699C65.7505 225.86 66.6428 222.051 67.2504 220.315C57.598 217.757 52.7342 214.488 52.3898 210.334C51.7839 203.001 66.5079 196.47 67.1353 196.196C67.335 196.116 67.558 196.117 67.7571 196.199C67.9561 196.28 68.1156 196.436 68.2017 196.633C68.2878 196.83 68.2937 197.053 68.2183 197.254C68.1428 197.456 67.9919 197.62 67.7975 197.712C63.8243 199.449 53.6149 205.084 54.0387 210.198C54.3201 213.59 59.3454 216.617 68.5698 218.947C68.6884 218.978 68.7989 219.034 68.8932 219.112C68.9876 219.189 69.0634 219.287 69.1154 219.398C69.1673 219.509 69.194 219.63 69.1936 219.752C69.1931 219.874 69.1655 219.995 69.1128 220.106C69.0913 220.151 66.9466 224.722 69.5085 227.605C72.2533 230.695 80.7476 232.601 105.613 224.141C105.821 224.07 106.049 224.085 106.246 224.182C106.443 224.279 106.593 224.45 106.664 224.658C106.735 224.865 106.72 225.093 106.623 225.29C106.526 225.487 106.355 225.637 106.147 225.708C94.1066 229.812 84.7539 231.858 78.1609 231.858V231.858Z" fill="#FCFEFE"/>
        <path d="M179.198 287.941C179.132 287.942 179.066 287.933 179.001 287.917C165.46 284.608 156.811 278.752 153.293 270.514C149.197 260.922 153.376 251.246 154.774 248.466C151.896 246.864 149.457 244.578 147.674 241.809C145.892 239.04 144.82 235.874 144.554 232.592C144.153 228.525 145.331 225.41 148.056 223.333C160.015 214.215 198.389 228.74 200.016 229.363C200.221 229.441 200.387 229.598 200.476 229.798C200.566 229.998 200.572 230.226 200.493 230.431C200.415 230.636 200.258 230.801 200.058 230.891C199.857 230.98 199.629 230.986 199.424 230.908C199.034 230.759 160.292 216.088 149.06 224.648C146.791 226.379 145.856 228.924 146.201 232.43C146.442 235.571 147.492 238.595 149.25 241.21C151.007 243.825 153.412 245.94 156.231 247.35C156.338 247.396 156.434 247.464 156.513 247.55C156.592 247.636 156.652 247.738 156.689 247.849C156.725 247.96 156.738 248.077 156.726 248.193C156.715 248.309 156.678 248.421 156.62 248.523C156.557 248.632 150.393 259.532 154.82 269.882C158.126 277.608 166.395 283.137 179.394 286.315C179.591 286.363 179.763 286.482 179.877 286.648C179.992 286.814 180.043 287.016 180.018 287.217C179.994 287.418 179.898 287.602 179.746 287.737C179.595 287.871 179.4 287.945 179.198 287.945V287.941Z" fill="#FCFEFE"/>
        <path d="M148.981 405.776C148.775 405.775 148.576 405.698 148.424 405.56C148.272 405.421 148.177 405.231 148.158 405.026C148.117 404.613 144.632 363.434 180.248 345.712C178.223 341.45 168.999 320.941 175.236 313.518C177.684 310.606 182.095 310.064 188.344 311.909C188.552 311.973 188.725 312.117 188.828 312.308C188.93 312.5 188.953 312.724 188.892 312.933C188.83 313.141 188.689 313.317 188.499 313.422C188.309 313.527 188.085 313.554 187.876 313.495C182.315 311.855 178.489 312.22 176.504 314.582C170.366 321.888 181.975 345.487 182.093 345.724C182.142 345.822 182.17 345.929 182.178 346.038C182.185 346.148 182.17 346.257 182.135 346.361C182.099 346.465 182.043 346.56 181.97 346.642C181.898 346.724 181.809 346.79 181.711 346.838C146.353 363.849 149.767 404.465 149.805 404.873C149.826 405.091 149.759 405.309 149.619 405.478C149.48 405.647 149.278 405.754 149.06 405.775C149.033 405.774 149.006 405.776 148.981 405.776V405.776Z" fill="#FCFEFE"/>
        <path d="M48.9058 383.686C48.6863 383.695 48.4724 383.615 48.3113 383.466C48.1502 383.317 48.055 383.11 48.0466 382.89C48.0383 382.671 48.1175 382.457 48.2668 382.296C48.4162 382.135 48.6234 382.04 48.8429 382.032C69.9381 380.396 95.0519 370.889 96.402 349.477C96.9971 340.046 91.7294 332.035 83.8757 330.418C81.7939 329.988 74.8756 328.114 73.3012 321.989C71.332 314.331 78.5855 303.414 94.8582 289.541C103.848 281.878 107.696 275.793 105.984 271.945C102.285 263.624 73.927 265.409 63.3128 266.794C63.095 266.823 62.8748 266.764 62.7006 266.63C62.5265 266.496 62.4126 266.299 62.384 266.081C62.3555 265.863 62.4146 265.643 62.5485 265.469C62.6823 265.295 62.8798 265.181 63.0976 265.153C64.705 264.944 102.541 260.128 107.496 271.275C109.595 275.99 105.812 282.38 95.9335 290.798C76.3159 307.524 73.6671 316.767 74.9037 321.572C76.2405 326.769 82.365 328.412 84.2109 328.792C92.8791 330.578 98.6965 339.318 98.0542 349.576C97.5492 357.595 93.288 365.241 86.0576 371.104C77.2835 378.218 64.8052 382.449 48.9745 383.678C48.9502 383.684 48.9273 383.686 48.9058 383.686Z" fill="#FCFEFE"/>
        <path d="M66.3316 191.034C66.3316 191.034 59.9703 212.218 78.329 221.208C78.329 221.208 99.67 234.421 123.755 223.431C123.755 223.431 147.472 214.414 144.553 193.225L142.29 184.898C133.308 182.251 123.762 182.179 114.741 184.692L92.4065 186.326C92.4065 186.326 80.3156 187.991 73.3029 191.674L66.3316 191.034Z" fill="#FCFEFE"/>
        <path d="M200.841 224.331L195.648 246.259L181.057 271.188C181.057 271.188 238.078 323.089 170.285 347.166C163.332 349.636 156.627 349.385 148.603 348.655C143.594 347.615 138.376 348.544 134.035 351.25C124.255 357.334 103.941 369.906 104.228 375.463C104.402 378.871 130.62 360.317 130.62 360.317L106.229 382.514C105.9 382.833 105.698 383.26 105.661 383.717C105.624 384.174 105.754 384.628 106.028 384.996C106.179 385.2 106.37 385.371 106.589 385.499C106.808 385.627 107.051 385.71 107.303 385.742C107.555 385.774 107.81 385.755 108.055 385.686C108.299 385.617 108.527 385.5 108.725 385.341L135.579 363.792L113.644 389.933C113.347 390.285 113.196 390.737 113.222 391.197C113.249 391.657 113.451 392.089 113.788 392.403C114.124 392.718 114.568 392.892 115.029 392.889C115.49 392.886 115.932 392.707 116.264 392.387L138.232 368.94L128.796 389.753C128.612 390.11 128.563 390.522 128.659 390.912C128.755 391.302 128.989 391.644 129.317 391.876C129.505 392.008 129.719 392.1 129.944 392.146C130.169 392.192 130.401 392.191 130.626 392.143C130.851 392.095 131.063 392.001 131.25 391.867C131.437 391.733 131.594 391.562 131.711 391.365L142.479 373.236C142.479 373.236 152.273 373.704 159.117 372.065C303.788 337.447 200.841 224.331 200.841 224.331V224.331Z" fill="#FCFEFE"/>
        <path d="M177.997 274.195C177.856 274.195 177.718 274.159 177.594 274.091L173.373 271.739C173.181 271.632 173.039 271.453 172.98 271.242C172.92 271.031 172.946 270.804 173.053 270.613C173.16 270.421 173.339 270.28 173.55 270.22C173.761 270.16 173.988 270.187 174.18 270.294L177.829 272.329C180.951 268.897 199.91 246.998 200.039 221.444C200.089 211.496 186.47 204.858 175.527 199.522C173.301 198.437 171.2 197.413 169.301 196.407C162.635 192.945 155.693 190.041 148.547 187.727C137.716 184.244 128.564 182.982 121.356 183.974C121.14 184.002 120.922 183.943 120.749 183.81C120.576 183.678 120.462 183.483 120.432 183.267C120.403 183.051 120.459 182.833 120.59 182.658C120.72 182.484 120.914 182.368 121.129 182.336C140.522 179.669 167.107 193.374 170.076 194.945C171.951 195.938 174.041 196.956 176.252 198.034C187.612 203.573 201.747 210.465 201.694 221.451C201.551 249.831 178.819 273.703 178.59 273.941C178.513 274.021 178.421 274.084 178.319 274.128C178.218 274.172 178.108 274.194 177.997 274.195V274.195Z" fill="#493F3F"/>
        <path d="M194.059 333.868C193.878 333.868 193.702 333.809 193.558 333.699C193.414 333.59 193.31 333.436 193.262 333.262C185.467 305.211 174.987 274.762 165.228 251.808C165.181 251.707 165.154 251.598 165.149 251.486C165.145 251.375 165.163 251.264 165.203 251.16C165.242 251.055 165.302 250.96 165.38 250.88C165.457 250.8 165.55 250.736 165.652 250.692C165.755 250.648 165.866 250.626 165.977 250.626C166.089 250.626 166.199 250.649 166.301 250.693C166.404 250.736 166.497 250.8 166.574 250.881C166.651 250.961 166.711 251.056 166.751 251.161C176.537 274.177 187.043 304.703 194.857 332.819C194.891 332.942 194.896 333.071 194.872 333.197C194.848 333.322 194.796 333.44 194.718 333.542C194.641 333.643 194.541 333.725 194.427 333.782C194.312 333.839 194.187 333.868 194.059 333.868Z" fill="#493F3F"/>
        <path d="M96.5477 415.862C80.2344 415.857 63.9889 413.765 48.2072 409.636L47.6377 409.471L47.6154 408.879C47.5905 408.253 45.397 345.156 65.0055 245.413C65.0246 245.305 65.0652 245.201 65.1248 245.109C65.1844 245.016 65.2618 244.937 65.3526 244.874C65.4434 244.812 65.5457 244.769 65.6535 244.746C65.7613 244.724 65.8725 244.724 65.9805 244.745C66.0885 244.766 66.1912 244.809 66.2825 244.87C66.3739 244.931 66.4521 245.01 66.5125 245.102C66.5729 245.194 66.6144 245.297 66.6345 245.406C66.6546 245.514 66.6529 245.625 66.6296 245.732C48.0773 340.085 49.073 401.538 49.251 408.212C55.2431 409.852 106.665 423.005 149.027 404.229C166.35 396.551 186.193 393.465 208.03 395.051C207.31 390.945 204.47 375.243 200.083 357.246C200.055 357.139 200.048 357.028 200.063 356.919C200.078 356.81 200.115 356.705 200.171 356.61C200.228 356.515 200.302 356.433 200.391 356.367C200.48 356.302 200.581 356.255 200.688 356.229C200.795 356.203 200.906 356.198 201.015 356.216C201.124 356.233 201.228 356.272 201.321 356.331C201.415 356.389 201.496 356.466 201.559 356.556C201.623 356.646 201.668 356.747 201.692 356.855C206.792 377.8 209.809 395.646 209.839 395.819L210.015 396.864L208.957 396.782C186.982 395.037 167.044 398.053 149.695 405.742C132.246 413.475 113.296 415.862 96.5477 415.862V415.862Z" fill="#493F3F"/>
        <path d="M120.119 189.862C116.319 175.108 110.931 149.019 110.931 149.019C88.9026 148.946 93.3824 150.253 88.079 151.466C88.6965 163.178 90.3478 182.4 90.2228 193.436" fill="#FCFEFE"/>
        <path d="M90.2245 194.262H90.2146C89.9952 194.259 89.7858 194.17 89.6325 194.013C89.4791 193.856 89.3943 193.645 89.3968 193.426C89.4845 185.76 88.7064 174.079 88.021 163.773C87.7231 159.291 87.4416 155.058 87.2537 151.51C87.2434 151.316 87.3021 151.124 87.4197 150.968C87.5372 150.812 87.7059 150.703 87.8961 150.66C88.7835 150.465 89.6476 150.176 90.4737 149.797C92.6018 148.869 94.3045 148.137 110.935 148.191C111.125 148.192 111.309 148.258 111.456 148.379C111.603 148.499 111.705 148.667 111.743 148.853C111.796 149.114 117.168 175.091 120.919 189.657C120.974 189.869 120.942 190.095 120.831 190.284C120.719 190.473 120.537 190.61 120.324 190.665C120.112 190.72 119.886 190.688 119.697 190.576C119.508 190.465 119.371 190.283 119.316 190.07C115.89 176.769 111.121 154.002 110.258 149.847C94.581 149.815 92.9809 150.508 91.1367 151.316C90.4287 151.638 89.6957 151.903 88.9448 152.107C89.1302 155.498 89.3951 159.469 89.6741 163.666C90.3611 174.002 91.1417 185.717 91.0531 193.447C91.0498 193.665 90.9611 193.872 90.806 194.024C90.6509 194.177 90.4421 194.262 90.2245 194.262V194.262Z" fill="#493F3F"/>
        <path d="M102.724 205.437C99.2117 205.486 95.7291 204.792 92.505 203.4C88.3041 201.497 85.7241 198.506 85.2398 194.987C84.8259 191.998 86.493 188.7 88.1899 186.615C88.3284 186.445 88.529 186.336 88.7475 186.314C88.966 186.291 89.1845 186.356 89.355 186.495C89.5254 186.633 89.6339 186.833 89.6565 187.052C89.6791 187.27 89.6139 187.489 89.4754 187.659C87.6179 189.942 86.599 192.73 86.8788 194.761C87.2835 197.698 89.5276 200.231 93.1895 201.894C97.4781 203.676 102.178 204.233 106.765 203.502C111.379 202.966 115.755 201.16 119.403 198.285C122.482 195.694 123.955 192.651 123.55 189.714C123.2 187.182 121.426 184.887 118.553 183.25C118.455 183.198 118.369 183.127 118.3 183.041C118.23 182.955 118.179 182.856 118.148 182.75C118.117 182.644 118.108 182.533 118.122 182.423C118.135 182.314 118.17 182.208 118.224 182.112C118.279 182.016 118.352 181.932 118.44 181.864C118.528 181.797 118.628 181.748 118.735 181.721C118.842 181.693 118.954 181.687 119.063 181.703C119.172 181.719 119.277 181.756 119.372 181.814C122.703 183.71 124.769 186.436 125.189 189.489C125.674 193.007 123.998 196.581 120.47 199.551C116.583 202.626 111.917 204.562 106.992 205.141C105.578 205.337 104.151 205.435 102.724 205.437V205.437Z" fill="#9AE6EB"/>
        <path d="M108.334 218.335C110.849 217.989 112.423 214.336 111.85 210.176C111.276 206.016 108.773 202.924 106.258 203.271C103.743 203.617 102.169 207.27 102.743 211.429C103.316 215.589 105.819 218.681 108.334 218.335Z" fill="#FCFEFE"/>
        <path d="M107.938 219.19C107.192 219.147 106.465 218.936 105.812 218.573C105.158 218.21 104.596 217.704 104.165 217.093C102.935 215.477 102.16 213.56 101.921 211.543C101.276 206.86 103.131 202.866 106.143 202.451C107.654 202.243 109.177 202.975 110.424 204.513C111.654 206.13 112.429 208.047 112.667 210.063C113.314 214.747 111.459 218.741 108.446 219.155C108.278 219.178 108.108 219.19 107.938 219.19V219.19ZM106.642 204.072C106.551 204.072 106.46 204.078 106.37 204.09C104.346 204.369 103.059 207.678 103.561 211.318C103.758 213.036 104.411 214.67 105.453 216.052C106.319 217.122 107.301 217.644 108.219 217.516C110.244 217.237 111.53 213.928 111.029 210.288C110.832 208.57 110.179 206.936 109.138 205.554C108.857 205.138 108.488 204.789 108.057 204.533C107.625 204.277 107.143 204.119 106.643 204.072H106.642Z" fill="#9AE6EB"/>
        <path d="M105.213 93.8936C105.213 93.8936 126.551 106.307 124.964 130.405L112.706 131.239L105.213 93.8936Z" fill="#493F3F"/>
        <path d="M68.9795 131.291C68.9795 131.291 63.3831 103.065 82.3063 102.593L83.5057 131.424L68.9795 131.291Z" fill="#493F3F"/>
        <path d="M127.826 118.573C138.259 104.816 135.349 85.0519 121.326 74.4298C107.303 63.8077 87.4765 66.3498 77.0431 80.1076C66.6097 93.8653 69.5197 113.629 83.5429 124.251C97.5661 134.873 117.392 132.331 127.826 118.573Z" fill="#493F3F"/>
        <path d="M131.203 84.4484C139.879 73.0078 137.459 56.5729 125.798 47.74C114.137 38.907 97.65 41.0209 88.9739 52.4615C80.2978 63.902 82.7177 80.3369 94.3789 89.1699C106.04 98.0028 122.527 95.889 131.203 84.4484Z" fill="#493F3F"/>
        <path d="M120.749 127.605C120.528 127.577 120.305 127.57 120.083 127.585C119.269 120.593 115.807 110.42 115.439 108.677C114.853 105.956 111.205 102.125 107.292 103.315C103.215 104.566 98.7354 108.496 95.124 108.84C90.9231 109.244 86.3498 106.134 82.5091 105.468C78.9887 104.889 76.0849 108.959 75.9955 112.061C75.9955 112.061 74.0917 122.744 74.34 129.916C73.7127 129.696 73.0403 129.634 72.3833 129.737C69.3976 130.211 67.4648 134.039 68.1369 138.273C68.809 142.506 71.798 145.52 74.8135 145.042C75.2684 144.967 75.7065 144.813 76.1081 144.586C78.6874 155.948 86.5949 168.606 99.8984 168.08C113.202 167.554 119.433 154.283 120.406 143.007C123.189 142.862 125.518 139.863 125.756 135.903C126.078 131.671 123.803 127.941 120.749 127.605V127.605Z" fill="#FCFEFE"/>
        <path d="M99.1203 168.926C93.1605 168.926 87.7264 166.315 83.3633 161.339C79.574 156.815 76.8931 151.469 75.5336 145.728C75.3435 145.784 75.1499 145.829 74.9542 145.862C74.042 145.977 73.1156 145.868 72.2548 145.545C71.394 145.222 70.6247 144.695 70.0134 144.009C68.5603 142.463 67.6217 140.506 67.3265 138.406C66.5815 133.727 68.7974 129.471 72.2599 128.923C72.6706 128.858 73.0879 128.847 73.5015 128.89C73.4477 121.995 75.0204 112.882 75.1802 111.977C75.2669 110.823 75.5829 109.697 76.1097 108.666C76.6366 107.635 77.3637 106.719 78.2486 105.972C78.8416 105.444 79.5435 105.052 80.3047 104.824C81.0659 104.596 81.8679 104.538 82.6539 104.655C84.3462 105.021 85.9984 105.554 87.5865 106.244C90.0962 107.23 92.6945 108.253 95.0544 108.02C96.8895 107.845 99.0557 106.604 101.35 105.29C103.148 104.168 105.06 103.241 107.055 102.526C107.916 102.275 108.82 102.21 109.708 102.335C110.596 102.46 111.447 102.772 112.205 103.25C114.19 104.406 115.644 106.292 116.255 108.505C116.342 108.919 116.647 109.946 117.033 111.242C118.2 115.165 120.119 121.613 120.822 126.781L120.853 126.785C124.369 127.177 126.944 131.294 126.593 135.968C126.352 139.956 124.079 143.153 121.178 143.744C119.913 156.011 112.924 168.396 99.9423 168.909C99.6608 168.917 99.3901 168.926 99.1203 168.926V168.926ZM76.1089 143.762C76.2966 143.762 76.4789 143.826 76.6257 143.943C76.7725 144.06 76.8751 144.223 76.9168 144.406C80.76 161.334 91.1847 167.269 99.2287 167.27C99.4431 167.27 99.6559 167.265 99.8678 167.257C112.075 166.774 118.565 154.695 119.582 142.936C119.599 142.737 119.688 142.551 119.831 142.412C119.975 142.273 120.164 142.191 120.364 142.18C122.757 142.056 124.721 139.335 124.932 135.852C125.213 132.108 123.254 128.713 120.656 128.427H120.643C120.474 128.405 120.304 128.4 120.134 128.412C119.923 128.424 119.714 128.356 119.551 128.22C119.389 128.085 119.283 127.892 119.258 127.682C118.66 122.553 116.563 115.5 115.436 111.716C115.022 110.333 114.727 109.333 114.626 108.854C114.104 107.098 112.935 105.606 111.355 104.679C110.792 104.323 110.161 104.088 109.502 103.99C108.843 103.893 108.171 103.934 107.529 104.112C105.654 104.795 103.855 105.672 102.163 106.728C99.7097 108.135 97.392 109.458 95.2026 109.669C92.4445 109.935 89.6567 108.841 86.9706 107.785C85.4877 107.14 83.9462 106.638 82.3675 106.288C81.8155 106.218 81.2551 106.268 80.7242 106.435C80.1933 106.601 79.7045 106.88 79.2908 107.251C78.5797 107.855 77.9954 108.593 77.5719 109.423C77.1483 110.254 76.8939 111.16 76.8233 112.09C76.8217 112.131 76.8173 112.171 76.81 112.211C76.7918 112.317 74.9236 122.891 75.1686 129.892C75.1734 130.027 75.1453 130.16 75.0868 130.281C75.0283 130.403 74.9411 130.508 74.8329 130.587C74.7246 130.667 74.5985 130.72 74.4654 130.74C74.3324 130.76 74.1964 130.747 74.0693 130.703C73.571 130.528 73.037 130.478 72.5148 130.559C69.996 130.959 68.3662 134.434 68.9555 138.148C69.1978 139.908 69.9784 141.549 71.1904 142.848C71.6186 143.344 72.1606 143.728 72.7699 143.969C73.3793 144.209 74.0378 144.299 74.6893 144.23C75.0471 144.17 75.3917 144.048 75.7075 143.87C75.8306 143.799 75.97 143.76 76.1122 143.759L76.1089 143.762Z" fill="#493F3F"/>
        <path d="M95.4344 139.436C93.9035 139.551 92.3851 139.088 91.1789 138.139C90.8495 137.86 90.5862 137.512 90.408 137.118C90.2298 136.725 90.1411 136.298 90.1484 135.866C90.3139 132.774 94.076 127.711 94.5031 127.143C94.6349 126.968 94.831 126.852 95.0483 126.821C95.2656 126.79 95.4864 126.846 95.662 126.978C95.8376 127.11 95.9537 127.306 95.9848 127.523C96.0158 127.74 95.9593 127.961 95.8275 128.136C94.7515 129.567 91.9231 133.762 91.803 135.953C91.8142 136.139 91.8641 136.32 91.9496 136.486C92.0352 136.652 92.1544 136.797 92.2997 136.914C92.8145 137.384 94.1745 138.098 97.5004 137.614C97.6081 137.598 97.718 137.603 97.8236 137.63C97.9293 137.656 98.0287 137.703 98.1161 137.768C98.2036 137.833 98.2773 137.915 98.3332 138.008C98.389 138.101 98.4259 138.205 98.4416 138.313C98.4574 138.42 98.4517 138.53 98.4249 138.636C98.3981 138.741 98.3507 138.84 98.2855 138.928C98.2203 139.015 98.1385 139.088 98.0449 139.144C97.9512 139.199 97.8475 139.236 97.7396 139.251C96.9767 139.369 96.2063 139.431 95.4344 139.436V139.436Z" fill="black"/>
        <path d="M82.3121 115.066C82.3121 115.066 84.5106 112.842 89.3877 115.257Z" fill="#FCFEFE"/>
        <path d="M89.3868 116.498C89.1958 116.498 89.0074 116.453 88.8364 116.368C84.9278 114.432 83.2425 115.896 83.1729 115.96C82.9324 116.179 82.6163 116.296 82.291 116.287C81.9657 116.279 81.6564 116.144 81.4281 115.913C81.2027 115.683 81.0764 115.375 81.0764 115.053C81.0764 114.732 81.2027 114.423 81.4281 114.194C81.5448 114.077 84.3252 111.364 89.939 114.144C90.1904 114.268 90.3924 114.474 90.5121 114.727C90.6318 114.98 90.6621 115.267 90.5981 115.54C90.5341 115.813 90.3796 116.056 90.1596 116.23C89.9397 116.404 89.6673 116.498 89.3868 116.498V116.498Z" fill="#493F3F"/>
        <path d="M107.449 112.202C107.449 112.202 102.89 110.822 99.5648 113.857Z" fill="#FCFEFE"/>
        <path d="M99.564 115.096C99.3136 115.096 99.069 115.02 98.8625 114.879C98.6559 114.738 98.4969 114.537 98.4064 114.304C98.3159 114.07 98.2981 113.815 98.3553 113.572C98.4126 113.328 98.5422 113.107 98.7271 112.939C102.53 109.469 107.596 110.953 107.809 111.015C108.119 111.115 108.377 111.332 108.528 111.62C108.679 111.908 108.711 112.243 108.617 112.554C108.523 112.865 108.311 113.127 108.026 113.284C107.741 113.44 107.406 113.479 107.093 113.391C107.022 113.37 103.134 112.277 100.402 114.772C100.173 114.981 99.874 115.097 99.564 115.096V115.096Z" fill="#493F3F"/>
        <path d="M72.2326 133.668C72.2326 133.668 75.734 133.39 75.9384 136.884Z" fill="#FCFEFE"/>
        <path d="M75.9376 137.712C75.7261 137.712 75.5225 137.631 75.3686 137.487C75.2147 137.342 75.1221 137.143 75.1098 136.932C75.1138 136.594 75.0479 136.259 74.9161 135.948C74.7844 135.637 74.5896 135.356 74.3442 135.124C73.7558 134.682 73.0316 134.459 72.2963 134.493C72.0781 134.507 71.863 134.436 71.6966 134.294C71.5303 134.152 71.4259 133.951 71.4057 133.733C71.3971 133.625 71.4099 133.516 71.4434 133.413C71.477 133.309 71.5306 133.214 71.6011 133.131C71.6717 133.048 71.7578 132.98 71.8547 132.931C71.9515 132.882 72.0572 132.852 72.1655 132.843C73.3436 132.777 74.5051 133.145 75.431 133.876C75.8444 134.251 76.176 134.708 76.405 135.217C76.634 135.726 76.7555 136.277 76.762 136.836C76.7749 137.055 76.7003 137.27 76.5545 137.434C76.4088 137.598 76.2038 137.697 75.9848 137.71L75.9376 137.712Z" fill="#493F3F"/>
        <path d="M121.265 130.974C121.265 130.974 117.992 132.588 119.963 136.743Z" fill="#FCFEFE"/>
        <path d="M119.964 137.573C119.808 137.572 119.655 137.527 119.523 137.444C119.391 137.36 119.286 137.241 119.219 137.099C117.384 133.232 119.518 130.917 120.903 130.233C121.098 130.141 121.322 130.13 121.527 130.201C121.731 130.272 121.899 130.42 121.996 130.613C122.092 130.807 122.109 131.03 122.042 131.236C121.976 131.442 121.831 131.613 121.64 131.714C121.378 131.849 119.157 133.111 120.714 136.389C120.774 136.515 120.801 136.654 120.792 136.793C120.784 136.932 120.741 137.067 120.666 137.185C120.592 137.303 120.489 137.4 120.367 137.467C120.245 137.535 120.108 137.571 119.969 137.571L119.964 137.573Z" fill="#493F3F"/>
        <path d="M128.254 83.8771C128.124 83.8774 127.996 83.8473 127.88 83.7891C127.764 83.7309 127.664 83.6463 127.587 83.5421C119.942 73.2014 110.701 68.4811 100.116 69.5276C95.2653 70.0344 90.5921 71.6318 86.4467 74.1999C86.357 74.2613 86.2561 74.3045 86.1497 74.327C86.0433 74.3494 85.9336 74.3507 85.8267 74.3308C85.7198 74.3109 85.6179 74.2701 85.5268 74.2108C85.4357 74.1515 85.3572 74.0749 85.2957 73.9852C85.2342 73.8956 85.191 73.7948 85.1685 73.6884C85.1461 73.5821 85.1448 73.4724 85.1647 73.3656C85.1847 73.2588 85.2255 73.157 85.2848 73.0659C85.3441 72.9748 85.4208 72.8964 85.5105 72.8349C85.7514 72.6695 109.783 56.6703 128.918 82.5585C128.983 82.646 129.03 82.7453 129.056 82.8509C129.083 82.9565 129.088 83.0662 129.071 83.1738C129.055 83.2814 129.018 83.3847 128.962 83.4778C128.905 83.571 128.831 83.6521 128.744 83.7167C128.602 83.8215 128.43 83.8777 128.254 83.8771V83.8771Z" fill="#FCFEFE"/>
        <path d="M125.059 121.095C124.859 121.095 124.665 121.022 124.514 120.89C124.364 120.757 124.266 120.575 124.24 120.376C122.667 108.38 118.061 100.356 110.539 96.5408C95.0602 88.6818 72.0786 101.062 71.8485 101.187C71.656 101.293 71.4294 101.318 71.2187 101.256C71.008 101.195 70.8303 101.052 70.7248 100.859C70.6193 100.667 70.5947 100.441 70.6562 100.23C70.7178 100.019 70.8605 99.8419 71.053 99.7365C75.4785 97.4384 80.1319 95.6085 84.9377 94.2766C95.4203 91.3622 104.53 91.6335 111.286 95.0608C119.325 99.1408 124.237 107.585 125.881 120.158C125.909 120.376 125.85 120.595 125.716 120.769C125.583 120.943 125.385 121.057 125.168 121.085C125.132 121.091 125.096 121.095 125.059 121.095V121.095Z" fill="#FCFEFE"/>
        <path d="M84.5181 114.014C94.5778 112.63 102.23 107.854 101.609 103.347C100.988 98.8406 92.3291 96.3097 82.2693 97.6942C72.2095 99.0787 64.5578 103.854 65.1788 108.361C65.7998 112.868 74.4583 115.399 84.5181 114.014Z" fill="#493F3F"/>
        <path d="M119.02 108.95C111.505 61.3725 76.3084 105.553 76.3084 105.553C76.3084 105.553 120.469 118.111 119.02 108.95Z" fill="#493F3F"/>
        <path d="M131.695 67.0905C131.502 67.0905 131.316 67.0235 131.168 66.9011C131.019 66.7786 130.918 66.6084 130.882 66.4196C128.735 55.2243 119.847 52.0534 119.758 52.0253C119.655 51.9903 119.56 51.9354 119.478 51.8637C119.396 51.792 119.33 51.705 119.282 51.6075C119.233 51.51 119.205 51.404 119.198 51.2956C119.191 51.1872 119.205 51.0784 119.24 50.9755C119.311 50.7677 119.461 50.5965 119.658 50.4996C119.756 50.4516 119.862 50.4232 119.971 50.4162C120.079 50.4091 120.188 50.4235 120.291 50.4585C120.694 50.595 130.173 53.933 132.508 66.1102C132.55 66.3256 132.504 66.5486 132.38 66.7301C132.257 66.9116 132.067 67.0368 131.851 67.0781C131.799 67.0871 131.747 67.0912 131.695 67.0905V67.0905Z" fill="#FCFEFE"/>
        <path d="M93.1274 167.198C93.1274 167.198 98.5806 188.194 117.207 180.94L113.66 161.387C113.66 161.387 109.561 171.119 93.1274 167.198Z" fill="#493F3F"/>
        <path d="M86.3232 128.113C89.4062 127.895 91.7863 126.037 91.6392 123.963C91.4921 121.888 88.8735 120.384 85.7904 120.603C82.7073 120.821 80.3273 122.679 80.4744 124.754C80.6215 126.828 83.2401 128.332 86.3232 128.113Z" fill="#FCFEFE"/>
        <path d="M85.7083 128.963C82.5248 128.963 79.9431 127.309 79.6658 124.975C79.6142 124.475 79.6652 123.97 79.8154 123.491C79.9657 123.011 80.2122 122.567 80.5399 122.186C81.8274 120.768 83.6196 119.911 85.532 119.798C89.1104 119.467 92.1449 121.2 92.4503 123.746C92.5024 124.247 92.4517 124.753 92.3012 125.233C92.1508 125.713 91.9038 126.158 91.5754 126.54C90.2878 127.957 88.4956 128.814 86.5832 128.926C86.2869 128.952 85.9953 128.964 85.7083 128.963V128.963ZM86.3705 121.411C86.1454 121.411 85.9152 121.421 85.6843 121.443C84.2163 121.513 82.833 122.151 81.827 123.221C81.6408 123.433 81.499 123.68 81.4098 123.947C81.3207 124.215 81.2861 124.497 81.308 124.778C81.4992 126.372 83.8426 127.508 86.4276 127.275C87.8959 127.205 89.2793 126.567 90.2849 125.496C90.4711 125.284 90.613 125.037 90.7021 124.77C90.7913 124.502 90.8259 124.22 90.8039 123.939C90.6301 122.488 88.67 121.411 86.3705 121.411V121.411Z" fill="#493F3F"/>
        <path d="M105.789 125.213C108.995 124.941 111.457 123.09 111.286 121.078C111.115 119.065 108.377 117.654 105.171 117.926C101.964 118.198 99.5024 120.049 99.673 122.061C99.8437 124.074 102.582 125.485 105.789 125.213Z" fill="#FCFEFE"/>
        <path d="M104.985 126.074C101.733 126.074 99.1236 124.491 98.8596 122.23C98.8136 121.757 98.864 121.281 99.0077 120.829C99.1514 120.376 99.3854 119.958 99.6956 119.599C101.067 118.118 102.959 117.227 104.975 117.113C108.68 116.751 111.81 118.418 112.101 120.908C112.147 121.38 112.097 121.856 111.953 122.309C111.809 122.761 111.575 123.179 111.265 123.538C109.893 125.017 108.001 125.907 105.986 126.02C105.647 126.056 105.313 126.074 104.985 126.074ZM100.503 122.038C100.683 123.569 103.115 124.639 105.825 124.378C107.396 124.298 108.879 123.627 109.975 122.5C110.147 122.312 110.278 122.09 110.36 121.849C110.443 121.609 110.476 121.353 110.456 121.1C110.277 119.567 107.841 118.498 105.134 118.759C103.563 118.839 102.08 119.51 100.984 120.637C100.812 120.826 100.681 121.047 100.599 121.288C100.516 121.529 100.483 121.784 100.503 122.038V122.038Z" fill="#493F3F"/>
        <path d="M86.2068 125.595C87.7352 125.384 88.8181 124.08 88.6255 122.682C88.4328 121.284 87.0376 120.321 85.5091 120.532C83.9806 120.742 82.8978 122.046 83.0904 123.444C83.2831 124.842 84.6783 125.805 86.2068 125.595Z" fill="#493F3F"/>
        <path d="M104.961 123.013C106.489 122.803 107.572 121.499 107.379 120.101C107.187 118.702 105.791 117.74 104.263 117.95C102.735 118.16 101.652 119.464 101.844 120.862C102.037 122.26 103.432 123.223 104.961 123.013Z" fill="#493F3F"/>
        <path d="M95.9103 148.692C95.2192 148.162 111.188 141.899 111.188 141.899C111.188 141.899 114.519 162.974 95.9103 148.692Z" fill="#FCFEFE"/>
        <path d="M106.217 154.497C103.463 154.497 99.8926 152.791 95.4062 149.348C95.2861 149.25 95.1925 149.123 95.1338 148.98C95.0751 148.836 95.0532 148.68 95.0701 148.526C95.1488 147.963 95.2489 147.261 110.885 141.129C111 141.084 111.124 141.065 111.248 141.074C111.371 141.083 111.491 141.12 111.599 141.181C111.706 141.242 111.798 141.327 111.869 141.429C111.939 141.531 111.986 141.647 112.005 141.769C112.065 142.151 113.429 151.132 108.98 153.775C108.142 154.264 107.186 154.514 106.217 154.497V154.497ZM97.2769 148.684C102.264 152.347 106.009 153.617 108.134 152.352C110.672 150.846 110.758 145.825 110.497 143.06C105.011 145.229 99.3297 147.616 97.2769 148.684V148.684Z" fill="#493F3F"/>
        <path d="M63.6844 257.486C63.6401 257.486 63.5958 257.482 63.552 257.475C34.4153 252.785 20.1466 237.182 13.3077 224.917C8.81897 217.001 6.11564 208.201 5.38698 199.131C5.38228 198.993 5.4124 198.856 5.47459 198.732C5.53677 198.608 5.62903 198.502 5.74291 198.423L49.7568 167.945C49.877 167.861 50.0171 167.811 50.1628 167.8C50.3086 167.788 50.4548 167.816 50.5866 167.879C50.7184 167.942 50.831 168.039 50.9131 168.16C50.9952 168.281 51.0437 168.422 51.0538 168.567C51.2542 171.736 51.7138 174.882 52.4279 177.976C52.9698 180.227 53.9875 182.336 55.4126 184.162C56.8378 185.987 58.6374 187.487 60.6905 188.56C62.8027 189.667 65.1276 190.31 67.509 190.445C69.8903 190.581 72.2731 190.205 74.4973 189.344C79.5584 187.397 84.861 186.146 90.2593 185.627C90.3674 185.616 90.4767 185.627 90.5808 185.658C90.6849 185.689 90.7817 185.741 90.8659 185.81C90.9501 185.878 91.0199 185.963 91.0713 186.059C91.1227 186.155 91.1548 186.259 91.1657 186.368C91.1765 186.476 91.166 186.585 91.1346 186.689C91.1033 186.793 91.0518 186.89 90.983 186.974C90.9142 187.058 90.8295 187.128 90.7337 187.179C90.6379 187.23 90.533 187.263 90.4248 187.273C85.1759 187.778 80.0201 188.993 75.0991 190.887C72.6549 191.833 70.0363 192.246 67.4193 192.097C64.8023 191.948 62.2475 191.241 59.9265 190.024C57.6638 188.842 55.6805 187.189 54.11 185.177C52.5395 183.165 51.4181 180.841 50.8212 178.36C50.1897 175.649 49.7546 172.896 49.5192 170.123L7.07062 199.518C7.90965 208.182 10.5391 216.579 14.7927 224.176C21.4544 236.099 35.3672 251.263 63.8194 255.841C64.0255 255.874 64.212 255.982 64.3413 256.146C64.4706 256.31 64.5332 256.516 64.5167 256.724C64.5002 256.932 64.4057 257.126 64.2521 257.267C64.0985 257.409 63.8973 257.487 63.6886 257.486H63.6844Z" fill="#493F3F"/>
        <path d="M102.534 228.869C89.7039 228.869 78.1212 224.568 71.2053 216.968C65.0072 210.155 62.9138 201.391 65.1504 191.621C65.1723 191.512 65.2157 191.41 65.278 191.319C65.3402 191.227 65.4201 191.15 65.5129 191.09C65.6057 191.03 65.7096 190.989 65.8183 190.97C65.9271 190.951 66.0386 190.954 66.1463 190.979C66.2539 191.003 66.3555 191.049 66.4452 191.114C66.5348 191.178 66.6106 191.26 66.6682 191.354C66.7257 191.448 66.7638 191.553 66.7802 191.662C66.7966 191.771 66.791 191.883 66.7636 191.99C64.6545 201.209 66.6138 209.461 72.4296 215.855C80.3412 224.55 94.7291 228.716 109.975 226.727C123.39 224.976 135.545 217.797 140.942 208.436C144.92 201.536 145.213 193.907 141.811 185.763C141.766 185.662 141.741 185.553 141.739 185.443C141.736 185.332 141.756 185.222 141.796 185.119C141.837 185.016 141.898 184.923 141.975 184.844C142.053 184.765 142.145 184.702 142.247 184.66C142.349 184.617 142.459 184.595 142.57 184.596C142.68 184.596 142.79 184.619 142.891 184.662C142.993 184.706 143.085 184.769 143.162 184.849C143.239 184.928 143.299 185.023 143.339 185.126C146.898 193.647 146.567 201.996 142.377 209.263C136.732 219.053 124.097 226.552 110.19 228.372C107.651 228.703 105.094 228.869 102.534 228.869Z" fill="#493F3F"/>
        <path d="M115.01 393.715C114.511 393.714 114.022 393.57 113.602 393.301C113.182 393.032 112.847 392.649 112.637 392.197C112.426 391.745 112.349 391.242 112.415 390.747C112.48 390.253 112.685 389.787 113.006 389.405L129.543 369.701L109.241 385.992C108.956 386.22 108.629 386.389 108.277 386.488C107.926 386.587 107.558 386.614 107.196 386.567C106.834 386.521 106.485 386.402 106.169 386.218C105.854 386.034 105.58 385.788 105.362 385.496C104.969 384.966 104.782 384.312 104.836 383.656C104.889 382.999 105.179 382.384 105.652 381.925L121.32 367.666C120.536 368.184 119.736 368.708 118.932 369.228C106.092 377.536 104.787 376.908 104.083 376.566C103.882 376.47 103.713 376.321 103.592 376.135C103.471 375.948 103.404 375.732 103.398 375.511C103.115 369.988 118.668 359.837 133.267 350.757L133.599 350.553C138.104 347.735 143.524 346.764 148.728 347.841C156.231 348.519 163.017 348.874 170.01 346.389C188.901 339.68 199.709 330.181 202.134 318.155C206.62 295.895 180.764 272.04 180.502 271.802C180.422 271.728 180.356 271.64 180.31 271.542C180.264 271.443 180.238 271.337 180.232 271.228C180.227 271.12 180.244 271.011 180.281 270.909C180.318 270.807 180.374 270.713 180.447 270.633C180.521 270.552 180.609 270.487 180.707 270.441C180.806 270.395 180.912 270.368 181.021 270.363C181.129 270.358 181.238 270.375 181.34 270.411C181.443 270.448 181.537 270.505 181.617 270.578C186.401 275.147 190.694 280.205 194.424 285.667C202.468 297.509 205.695 308.855 203.758 318.478C201.211 331.115 190.044 341.03 170.565 347.949C163.239 350.55 156.252 350.182 148.532 349.485C148.5 349.482 148.468 349.478 148.437 349.471C143.635 348.465 138.631 349.356 134.473 351.958L134.146 352.161C125.576 357.491 105.787 369.802 105.072 375.049C107.731 374.635 119.605 367.107 130.143 359.649C130.315 359.528 130.526 359.477 130.734 359.507C130.942 359.536 131.132 359.643 131.263 359.807C131.395 359.971 131.46 360.178 131.444 360.388C131.428 360.597 131.333 360.793 131.178 360.935L106.787 383.131C106.596 383.324 106.486 383.582 106.479 383.853C106.473 384.125 106.57 384.388 106.752 384.589C106.934 384.791 107.187 384.915 107.457 384.936C107.728 384.957 107.996 384.874 108.207 384.703L135.061 363.154C135.221 363.025 135.424 362.96 135.629 362.972C135.834 362.984 136.028 363.072 136.172 363.219C136.316 363.366 136.4 363.561 136.408 363.766C136.415 363.972 136.346 364.173 136.214 364.33L114.279 390.471C114.122 390.662 114.044 390.905 114.06 391.151C114.076 391.397 114.185 391.627 114.366 391.796C114.546 391.964 114.783 392.058 115.03 392.058C115.276 392.058 115.514 391.964 115.693 391.795L137.629 368.384C137.763 368.239 137.944 368.147 138.14 368.124C138.336 368.101 138.533 368.149 138.697 368.259C138.861 368.368 138.98 368.533 139.033 368.723C139.086 368.912 139.07 369.115 138.987 369.294L129.551 390.107C129.45 390.289 129.419 390.503 129.465 390.706C129.511 390.91 129.63 391.09 129.799 391.212C129.894 391.278 130.001 391.325 130.114 391.348C130.228 391.371 130.345 391.371 130.458 391.347C130.571 391.322 130.678 391.275 130.772 391.208C130.866 391.14 130.945 391.054 131.004 390.955L141.772 372.826C141.848 372.697 141.959 372.591 142.091 372.52C142.224 372.449 142.373 372.415 142.523 372.422C142.62 372.422 152.281 372.865 158.93 371.273C200.59 361.303 225.539 343.841 233.084 319.37C246.372 276.276 200.696 225.405 200.233 224.898C200.088 224.735 200.014 224.522 200.026 224.304C200.037 224.087 200.134 223.883 200.296 223.737C200.457 223.59 200.669 223.513 200.887 223.522C201.104 223.531 201.31 223.626 201.458 223.785C209.793 233.407 217.075 243.892 223.181 255.061C232.34 271.907 241.768 296.823 234.667 319.856C226.94 344.927 201.587 362.768 159.315 372.883C153.239 374.337 145.056 374.167 142.944 374.095L132.431 391.798C132.101 392.357 131.566 392.765 130.939 392.936C130.313 393.107 129.644 393.026 129.076 392.712C128.508 392.398 128.084 391.875 127.896 391.254C127.707 390.633 127.769 389.963 128.067 389.386L135.414 373.172L116.872 392.961C116.373 393.444 115.705 393.715 115.01 393.715V393.715Z" fill="#493F3F"/>
        <path d="M201.255 225.019C201.255 225.019 203.233 226.987 205.401 229.569C205.401 229.569 200.995 261.837 182.872 272.752L180.327 270.544C180.327 270.544 193.838 258.664 198.82 236.764L201.255 225.019Z" fill="#493F3F"/>
        <path d="M17.2064 192.766C17.2064 192.766 25.2355 198.258 24.8142 223.181C24.3929 248.105 42.2466 243.126 49.7526 241.345C54.1529 240.302 59.8967 239.233 64.124 252.329L63.1729 256.765C63.1729 256.765 31.0488 251.695 16.7834 229.095C2.51801 206.496 6.95308 198.258 6.95308 198.258L16.6742 192.136L17.2064 192.766Z" fill="#9AE6EB"/>
        <path d="M144.553 193.221C144.553 193.221 151.407 202.904 164.51 196.778C164.51 196.778 163.454 203.748 179.938 201.635L167.574 194.296L146.015 186.166L143.003 185.638L144.553 193.221Z" fill="#9AE6EB"/>
    </g>
    <defs>
        <clipPath id="clip0_5_767">
            <rect width="308" height="694" fill="white"/>
        </clipPath>
    </defs>
</svg>
